<svg xmlns="http://www.w3.org/2000/svg" xmlns:xlink="http://www.w3.org/1999/xlink">
    <symbol viewBox="0 0 24 24" id="lucide-plus"><path fill="none" stroke="currentColor" stroke-linecap="round" stroke-linejoin="round" stroke-width="2" d="M5 12h14m-7-7v14"></path></symbol>
    <symbol viewBox="0 0 24 24" id="lucide-calendar-clock"><g fill="none" stroke="currentColor" stroke-linecap="round" stroke-linejoin="round" stroke-width="2"><path d="M21 7.5V6a2 2 0 0 0-2-2H5a2 2 0 0 0-2 2v14a2 2 0 0 0 2 2h3.5M16 2v4M8 2v4m-5 4h5m9.5 7.5L16 16.3V14"></path><circle cx="16" cy="16" r="6"></circle></g></symbol>
    <symbol viewBox="0 0 24 24" id="lucide-layout-list"><g fill="none" stroke="currentColor" stroke-linecap="round" stroke-linejoin="round" stroke-width="2"><rect width="7" height="7" x="3" y="3" rx="1"></rect><rect width="7" height="7" x="3" y="14" rx="1"></rect><path d="M14 4h7m-7 5h7m-7 6h7m-7 5h7"></path></g></symbol>
    <symbol viewBox="0 0 24 24" id="lucide-home"><g fill="none" stroke="currentColor" stroke-linecap="round" stroke-linejoin="round" stroke-width="2"><path d="m3 9l9-7l9 7v11a2 2 0 0 1-2 2H5a2 2 0 0 1-2-2z"></path><path d="M9 22V12h6v10"></path></g></symbol>
    <symbol viewBox="0 0 24 24" id="lucide-bell"><path fill="none" stroke="currentColor" stroke-linecap="round" stroke-linejoin="round" stroke-width="2" d="M6 8a6 6 0 0 1 12 0c0 7 3 9 3 9H3s3-2 3-9m4.3 13a1.94 1.94 0 0 0 3.4 0"></path></symbol>
    <symbol viewBox="0 0 24 24" id="lucide-menu"><path fill="none" stroke="currentColor" stroke-linecap="round" stroke-linejoin="round" stroke-width="2" d="M4 12h16M4 6h16M4 18h16"></path></symbol>
    <symbol viewBox="0 0 24 24" id="lucide-calendar"><g fill="none" stroke="currentColor" stroke-linecap="round" stroke-linejoin="round" stroke-width="2"><path d="M8 2v4m8-4v4"></path><rect width="18" height="18" x="3" y="4" rx="2"></rect><path d="M3 10h18"></path></g></symbol>
    <symbol viewBox="0 0 24 24" id="lucide-calendar-days"><g fill="none" stroke="currentColor" stroke-linecap="round" stroke-linejoin="round" stroke-width="2"><path d="M8 2v4m8-4v4"></path><rect width="18" height="18" x="3" y="4" rx="2"></rect><path d="M3 10h18M8 14h.01M12 14h.01M16 14h.01M8 18h.01M12 18h.01M16 18h.01"></path></g></symbol>
    <symbol viewBox="0 0 24 24" id="lucide-square-kanban"><g fill="none" stroke="currentColor" stroke-linecap="round" stroke-linejoin="round" stroke-width="2"><rect width="18" height="18" x="3" y="3" rx="2"></rect><path d="M8 7v7m4-7v4m4-4v9"></path></g></symbol>
    <symbol viewBox="0 0 24 24" id="lucide-list-checks"><path fill="none" stroke="currentColor" stroke-linecap="round" stroke-linejoin="round" stroke-width="2" d="m3 17l2 2l4-4M3 7l2 2l4-4m4 1h8m-8 6h8m-8 6h8"></path></symbol>
    <symbol viewBox="0 0 24 24" id="lucide-chevron-left"><path fill="none" stroke="currentColor" stroke-linecap="round" stroke-linejoin="round" stroke-width="2" d="m15 18l-6-6l6-6"></path></symbol>
    <symbol viewBox="0 0 24 24" id="lucide-chevron-right"><path fill="none" stroke="currentColor" stroke-linecap="round" stroke-linejoin="round" stroke-width="2" d="m9 18l6-6l-6-6"></path></symbol>
    <symbol viewBox="0 0 24 24" id="lucide-chevron-down"><path fill="none" stroke="currentColor" stroke-linecap="round" stroke-linejoin="round" stroke-width="2" d="m6 9l6 6l6-6"></path></symbol>
    <symbol viewBox="0 0 24 24" id="lucide-minus"><path fill="none" stroke="currentColor" stroke-linecap="round" stroke-linejoin="round" stroke-width="2" d="M5 12h14"></path></symbol>
    <symbol viewBox="0 0 24 24" id="lucide-x"><path fill="none" stroke="currentColor" stroke-linecap="round" stroke-linejoin="round" stroke-width="2" d="M18 6L6 18M6 6l12 12"></path></symbol>
    <symbol viewBox="0 0 24 24" id="lucide-circle"><circle cx="12" cy="12" r="10" fill="none" stroke="currentColor" stroke-linecap="round" stroke-linejoin="round" stroke-width="2"></circle></symbol>
    <symbol viewBox="0 0 448 512" id="fa6-solid-user-secret"><path fill="currentColor" d="M224 16c-6.7 0-10.8-2.8-15.5-6.1C201.9 5.4 194 0 176 0c-30.5 0-52 43.7-66 89.4c-47.3 8.7-78 22.8-78 38.6c0 14.3 25 27.1 64.6 35.9c-.4 4-.6 8-.6 12.1c0 17 3.3 33.2 9.3 48H45.4C38 224 32 230 32 237.4c0 1.7.3 3.4 1 5l38.8 96.9C28.2 371.8 0 423.8 0 482.3C0 498.7 13.3 512 29.7 512h388.6c16.4 0 29.7-13.3 29.7-29.7c0-58.5-28.2-110.4-71.7-143l38.7-96.9c.6-1.6 1-3.3 1-5c0-7.4-6-13.4-13.4-13.4h-59.9c6-14.8 9.3-31 9.3-48c0-4.1-.2-8.1-.6-12.1C391 155.1 416 142.3 416 128c0-15.8-30.7-29.9-78-38.6C324 43.7 302.5 0 272 0c-18 0-25.9 5.4-32.5 9.9c-4.8 3.3-8.8 6.1-15.5 6.1m56 208h-12.4c-16.5 0-31.1-10.6-36.3-26.2c-2.3-7-12.2-7-14.5 0c-5.2 15.6-19.9 26.2-36.3 26.2H168c-22.1 0-40-17.9-40-40v-14.4c28.2 4.1 61 6.4 96 6.4s67.8-2.3 96-6.4V184c0 22.1-17.9 40-40 40m-88 96l16 32l-32 128l-48-192zm128-32l-48 192l-32-128l16-32z"></path></symbol>
    <symbol viewBox="0 0 256 262" id="logos-google-icon"><path fill="#4285F4" d="M255.878 133.451c0-10.734-.871-18.567-2.756-26.69H130.55v48.448h71.947c-1.45 12.04-9.283 30.172-26.69 42.356l-.244 1.622l38.755 30.023l2.685.268c24.659-22.774 38.875-56.282 38.875-96.027"></path><path fill="#34A853" d="M130.55 261.1c35.248 0 64.839-11.605 86.453-31.622l-41.196-31.913c-11.024 7.688-25.82 13.055-45.257 13.055c-34.523 0-63.824-22.773-74.269-54.25l-1.531.13l-40.298 31.187l-.527 1.465C35.393 231.798 79.49 261.1 130.55 261.1"></path><path fill="#FBBC05" d="M56.281 156.37c-2.756-8.123-4.351-16.827-4.351-25.82c0-8.994 1.595-17.697 4.206-25.82l-.073-1.73L15.26 71.312l-1.335.635C5.077 89.644 0 109.517 0 130.55s5.077 40.905 13.925 58.602z"></path><path fill="#EB4335" d="M130.55 50.479c24.514 0 41.05 10.589 50.479 19.438l36.844-35.974C195.245 12.91 165.798 0 130.55 0C79.49 0 35.393 29.301 13.925 71.947l42.211 32.783c10.59-31.477 39.891-54.251 74.414-54.251"></path></symbol>
    <symbol viewBox="0 0 24 24" id="lucide-trash-2"><path fill="none" stroke="currentColor" stroke-linecap="round" stroke-linejoin="round" stroke-width="2" d="M3 6h18m-2 0v14c0 1-1 2-2 2H7c-1 0-2-1-2-2V6m3 0V4c0-1 1-2 2-2h4c1 0 2 1 2 2v2m-6 5v6m4-6v6"></path></symbol>
</svg>