<svg xmlns="http://www.w3.org/2000/svg" xmlns:xlink="http://www.w3.org/1999/xlink">
    <symbol viewBox="0 0 24 24" id="lucide-plus"><path fill="none" stroke="currentColor" stroke-linecap="round" stroke-linejoin="round" stroke-width="2" d="M5 12h14m-7-7v14"></path></symbol>
    <symbol viewBox="0 0 24 24" id="lucide-calendar-clock"><g fill="none" stroke="currentColor" stroke-linecap="round" stroke-linejoin="round" stroke-width="2"><path d="M21 7.5V6a2 2 0 0 0-2-2H5a2 2 0 0 0-2 2v14a2 2 0 0 0 2 2h3.5M16 2v4M8 2v4m-5 4h5m9.5 7.5L16 16.3V14"></path><circle cx="16" cy="16" r="6"></circle></g></symbol>
    <symbol viewBox="0 0 24 24" id="lucide-layout-list"><g fill="none" stroke="currentColor" stroke-linecap="round" stroke-linejoin="round" stroke-width="2"><rect width="7" height="7" x="3" y="3" rx="1"></rect><rect width="7" height="7" x="3" y="14" rx="1"></rect><path d="M14 4h7m-7 5h7m-7 6h7m-7 5h7"></path></g></symbol>
    <symbol viewBox="0 0 24 24" id="lucide-home"><g fill="none" stroke="currentColor" stroke-linecap="round" stroke-linejoin="round" stroke-width="2"><path d="m3 9l9-7l9 7v11a2 2 0 0 1-2 2H5a2 2 0 0 1-2-2z"></path><path d="M9 22V12h6v10"></path></g></symbol>
    <symbol viewBox="0 0 24 24" id="lucide-bell"><path fill="none" stroke="currentColor" stroke-linecap="round" stroke-linejoin="round" stroke-width="2" d="M6 8a6 6 0 0 1 12 0c0 7 3 9 3 9H3s3-2 3-9m4.3 13a1.94 1.94 0 0 0 3.4 0"></path></symbol>
    <symbol viewBox="0 0 24 24" id="lucide-menu"><path fill="none" stroke="currentColor" stroke-linecap="round" stroke-linejoin="round" stroke-width="2" d="M4 12h16M4 6h16M4 18h16"></path></symbol>
    <symbol viewBox="0 0 24 24" id="lucide-calendar"><g fill="none" stroke="currentColor" stroke-linecap="round" stroke-linejoin="round" stroke-width="2"><path d="M8 2v4m8-4v4"></path><rect width="18" height="18" x="3" y="4" rx="2"></rect><path d="M3 10h18"></path></g></symbol>
    <symbol viewBox="0 0 24 24" id="lucide-calendar-days"><g fill="none" stroke="currentColor" stroke-linecap="round" stroke-linejoin="round" stroke-width="2"><path d="M8 2v4m8-4v4"></path><rect width="18" height="18" x="3" y="4" rx="2"></rect><path d="M3 10h18M8 14h.01M12 14h.01M16 14h.01M8 18h.01M12 18h.01M16 18h.01"></path></g></symbol>
    <symbol viewBox="0 0 24 24" id="lucide-square-kanban"><g fill="none" stroke="currentColor" stroke-linecap="round" stroke-linejoin="round" stroke-width="2"><rect width="18" height="18" x="3" y="3" rx="2"></rect><path d="M8 7v7m4-7v4m4-4v9"></path></g></symbol>
    <symbol viewBox="0 0 24 24" id="lucide-list-checks"><path fill="none" stroke="currentColor" stroke-linecap="round" stroke-linejoin="round" stroke-width="2" d="m3 17l2 2l4-4M3 7l2 2l4-4m4 1h8m-8 6h8m-8 6h8"></path></symbol>
    <symbol viewBox="0 0 24 24" id="lucide-chevron-left"><path fill="none" stroke="currentColor" stroke-linecap="round" stroke-linejoin="round" stroke-width="2" d="m15 18l-6-6l6-6"></path></symbol>
    <symbol viewBox="0 0 24 24" id="lucide-chevron-right"><path fill="none" stroke="currentColor" stroke-linecap="round" stroke-linejoin="round" stroke-width="2" d="m9 18l6-6l-6-6"></path></symbol>
    <symbol viewBox="0 0 24 24" id="lucide-chevron-down"><path fill="none" stroke="currentColor" stroke-linecap="round" stroke-linejoin="round" stroke-width="2" d="m6 9l6 6l6-6"></path></symbol>
    <symbol viewBox="0 0 24 24" id="lucide-minus"><path fill="none" stroke="currentColor" stroke-linecap="round" stroke-linejoin="round" stroke-width="2" d="M5 12h14"></path></symbol>
    <symbol viewBox="0 0 24 24" id="lucide-x"><path fill="none" stroke="currentColor" stroke-linecap="round" stroke-linejoin="round" stroke-width="2" d="M18 6L6 18M6 6l12 12"></path></symbol>
    <symbol viewBox="0 0 24 24" id="lucide-circle"><circle cx="12" cy="12" r="10" fill="none" stroke="currentColor" stroke-linecap="round" stroke-linejoin="round" stroke-width="2"></circle></symbol>
</svg>